<svg width="326" height="66" viewBox="0 0 326 66" fill="none" xmlns="http://www.w3.org/2000/svg" class="hidden w-full max-w-300 xl:block 2xl:max-w-400"><path d="M92.3935 47.1131C83.3074 47.1131 77.161 40.4322 77.161 31.8043C77.161 23.0619 83.5365 16.4191 92.3171 16.4191C99.4943 16.4191 104.992 20.275 106.824 26.6887L97.5091 30.2009C96.8983 27.8721 94.7604 26.4978 92.6225 26.4978C89.912 26.4978 87.4687 28.6738 87.4687 31.8043C87.4687 35.0112 89.8738 37.0345 92.6989 37.0345C94.7604 37.0345 96.8983 35.9656 97.471 33.5604L106.939 36.3473C105.183 43.0664 99.6852 47.1131 92.3935 47.1131ZM122.505 47.1131C114.144 47.1131 106.661 41.4248 106.661 31.728C106.661 22.4892 113.724 16.4191 122.505 16.4191C131.324 16.4191 138.463 22.4892 138.463 31.728C138.463 41.3485 131.018 47.1131 122.505 47.1131ZM122.543 37.4926C125.559 37.4926 128.117 35.2402 128.117 31.728C128.117 28.3302 125.559 26.0778 122.543 26.0778C119.489 26.0778 117.007 28.3302 117.007 31.728C117.007 35.2784 119.527 37.4926 122.543 37.4926ZM139.337 46.655V16.8773H151.554L156.86 31.6516L162.128 16.8773H174.345V46.655H164.419V32.3388L159.418 46.655H154.34L149.263 32.3006V46.655H139.337ZM175.474 46.655V16.8773H186.583C193.837 16.8773 200.327 19.3969 200.327 27.5285C200.327 35.8892 193.531 38.218 186.583 38.218H185.4V46.655H175.474ZM185.4 29.6664H187.308C188.874 29.6664 189.943 28.9411 189.943 27.5285C189.943 26.1542 188.835 25.4288 187.308 25.4288H185.4V29.6664ZM216.016 46.655L215.176 42.8755H208.076L207.236 46.655H197.081L205.021 16.8773H218.269L226.209 46.655H216.016ZM209.603 35.9656H213.649L211.588 26.8795L209.603 35.9656ZM226.198 46.6169V16.8773H235.627L242.652 29.2847V16.8773H252.578V46.655H243.11L236.124 34.324V46.655L226.198 46.6169ZM253.722 46.655V16.8773H263.648V46.655H253.722ZM280.381 47.1131C272.021 47.1131 264.538 41.4248 264.538 31.728C264.538 22.4892 271.601 16.4191 280.381 16.4191C289.2 16.4191 296.339 22.4892 296.339 31.728C296.339 41.3485 288.895 47.1131 280.381 47.1131ZM280.42 37.4926C283.436 37.4926 285.993 35.2402 285.993 31.728C285.993 28.3302 283.436 26.0778 280.42 26.0778C277.366 26.0778 274.884 28.3302 274.884 31.728C274.884 35.2784 277.404 37.4926 280.42 37.4926ZM297.214 46.6169V16.8773H306.643L313.668 29.2847V16.8773H323.594V46.655H314.126L307.14 34.324V46.655L297.214 46.6169Z" fill="#032139"></path><path d="M269.938 62.0466C266.095 62.0466 263.507 59.2678 263.507 55.6792C263.507 52.043 266.19 49.2801 269.938 49.2801C272.859 49.2801 274.94 50.8838 275.749 52.8528L271.859 54.3613C271.7 53.8849 270.938 53.2339 270.017 53.2339C268.826 53.2339 267.762 54.2025 267.762 55.6951C267.762 57.2194 268.81 58.0928 270.001 58.0928C270.811 58.0928 271.542 57.7434 271.891 57.1083H270.271V54.7582L276.289 54.7424C276.623 59.6013 273.574 62.0466 269.938 62.0466ZM277.155 61.856V49.4706H282.332C284.984 49.4706 287.175 50.8362 287.175 53.5832C287.175 55.1552 286.492 56.235 285.444 56.9019L287.683 61.856H283.237L281.458 57.7117H281.284V61.856H277.155ZM281.284 54.5518H281.998C282.554 54.5518 282.999 54.3136 282.999 53.742C282.999 53.1862 282.538 52.9481 281.998 52.9481H281.284V54.5518ZM294.488 62.0466C291.011 62.0466 287.899 59.6807 287.899 55.6474C287.899 51.8048 290.836 49.2801 294.488 49.2801C298.156 49.2801 301.126 51.8048 301.126 55.6474C301.126 59.6489 298.029 62.0466 294.488 62.0466ZM294.504 58.0451C295.759 58.0451 296.823 57.1083 296.823 55.6474C296.823 54.2342 295.759 53.2974 294.504 53.2974C293.234 53.2974 292.202 54.2342 292.202 55.6474C292.202 57.1242 293.25 58.0451 294.504 58.0451ZM307.095 62.0466C304.443 62.0466 301.918 60.7763 301.918 56.7431V49.4706H306.047V56.7748C306.047 57.537 306.444 57.934 307.031 57.934C307.619 57.934 308.016 57.5529 308.016 56.7748V49.4706H312.144V56.7431C312.144 60.7922 309.667 62.0466 307.095 62.0466ZM313.053 61.856V49.4706H317.674C320.691 49.4706 323.39 50.5186 323.39 53.9008C323.39 57.3782 320.564 58.3468 317.674 58.3468H317.182V61.856H313.053ZM317.182 54.79H317.976C318.627 54.79 319.071 54.4883 319.071 53.9008C319.071 53.3291 318.611 53.0274 317.976 53.0274H317.182V54.79Z" fill="#276FFF"></path><mask id="path-3-outside-1_859_2" maskUnits="userSpaceOnUse" x="-1.41618" y="1.35924" width="86.6533" height="65.6453" fill="black"><rect fill="white" x="-1.41618" y="1.35924" width="86.6533" height="65.6453"></rect><path d="M46.3287 4.95852C55.2662 8.63025 60.0353 11.2012 65.4724 15.5843C66.3186 16.2667 66.9272 17.1638 67.2752 18.1577L66.1652 27.0903C66.0174 28.2802 66.5301 29.4549 67.4991 30.1575L68.748 20.7632C69.0875 18.2071 72.2465 17.1967 74.0061 19.0814L78.9229 24.3491C80.3091 25.8344 80.9779 27.8509 80.7552 29.8703L79.5602 40.706C79.4223 41.9556 78.7893 43.0982 77.8028 43.8775L75.3762 45.793L74.3723 51.7709C73.736 55.5566 70.6901 58.4762 66.8811 58.9531L34.6428 62.9856C30.1567 63.5465 25.6223 62.4061 21.9348 59.7902L10.1845 51.4537C7.16158 49.309 5.59619 45.6503 6.1319 41.9827L6.17687 41.6728L5.09211 41.1479C2.93676 40.1047 1.69451 37.7939 2.01321 35.4207L3.40213 25.0798C3.60931 23.5372 4.54617 22.1872 5.9184 21.4526L8.00106 20.3362L7.75436 22.3647C7.68052 22.9683 7.84374 23.5773 8.20961 24.063L8.66132 24.6628L9.1696 21.1868C9.53808 18.6655 10.9325 16.4017 13.0481 14.9814C18.5708 11.274 22.2182 9.19897 27.6688 6.70332C27.8183 6.68674 40.9281 5.23396 46.3287 4.95852ZM46.3599 12.4166C39.565 12.3572 35.2012 12.6697 28.2713 13.4861C27.7034 13.553 27.1444 13.7033 26.6226 13.9372C22.8106 15.647 20.3418 17.1099 17.1555 19.2966C15.6561 20.3257 14.6745 21.9505 14.4167 23.7508L13.0004 33.6491C12.6251 36.2725 15.1442 38.4207 17.7312 37.8459C25.7026 36.0745 37.7511 34.7962 53.3397 36.2881C55.8267 36.5256 58.0864 34.7596 58.3689 32.2772L59.637 21.1274C59.7914 19.7693 59.2341 18.4166 58.1289 17.6124C55.3919 15.6216 53.2694 14.4996 49.8973 13.1196C48.7762 12.6608 47.5712 12.4272 46.3599 12.4166Z"></path></mask><path d="M46.3287 4.95852C55.2662 8.63025 60.0353 11.2012 65.4724 15.5843C66.3186 16.2667 66.9272 17.1638 67.2752 18.1577L66.1652 27.0903C66.0174 28.2802 66.5301 29.4549 67.4991 30.1575L68.748 20.7632C69.0875 18.2071 72.2465 17.1967 74.0061 19.0814L78.9229 24.3491C80.3091 25.8344 80.9779 27.8509 80.7552 29.8703L79.5602 40.706C79.4223 41.9556 78.7893 43.0982 77.8028 43.8775L75.3762 45.793L74.3723 51.7709C73.736 55.5566 70.6901 58.4762 66.8811 58.9531L34.6428 62.9856C30.1567 63.5465 25.6223 62.4061 21.9348 59.7902L10.1845 51.4537C7.16158 49.309 5.59619 45.6503 6.1319 41.9827L6.17687 41.6728L5.09211 41.1479C2.93676 40.1047 1.69451 37.7939 2.01321 35.4207L3.40213 25.0798C3.60931 23.5372 4.54617 22.1872 5.9184 21.4526L8.00106 20.3362L7.75436 22.3647C7.68052 22.9683 7.84374 23.5773 8.20961 24.063L8.66132 24.6628L9.1696 21.1868C9.53808 18.6655 10.9325 16.4017 13.0481 14.9814C18.5708 11.274 22.2182 9.19897 27.6688 6.70332C27.8183 6.68674 40.9281 5.23396 46.3287 4.95852ZM46.3599 12.4166C39.565 12.3572 35.2012 12.6697 28.2713 13.4861C27.7034 13.553 27.1444 13.7033 26.6226 13.9372C22.8106 15.647 20.3418 17.1099 17.1555 19.2966C15.6561 20.3257 14.6745 21.9505 14.4167 23.7508L13.0004 33.6491C12.6251 36.2725 15.1442 38.4207 17.7312 37.8459C25.7026 36.0745 37.7511 34.7962 53.3397 36.2881C55.8267 36.5256 58.0864 34.7596 58.3689 32.2772L59.637 21.1274C59.7914 19.7693 59.2341 18.4166 58.1289 17.6124C55.3919 15.6216 53.2694 14.4996 49.8973 13.1196C48.7762 12.6608 47.5712 12.4272 46.3599 12.4166Z" fill="#276FFF"></path><path d="M46.3287 4.95852L47.0749 3.1422L46.668 2.97504L46.2287 2.99744L46.3287 4.95852ZM65.4724 15.5843L66.705 14.0557L66.7048 14.0556L65.4724 15.5843ZM67.2752 18.1577L69.2238 18.3998L69.2805 17.9431L69.1285 17.5088L67.2752 18.1577ZM66.1652 27.0903L64.2166 26.8482L64.2166 26.8482L66.1652 27.0903ZM67.4991 30.1575L66.3464 31.7472L69.0117 33.6797L69.4456 30.4163L67.4991 30.1575ZM68.748 20.7632L70.6945 21.022L70.6945 21.0218L68.748 20.7632ZM74.0061 19.0814L75.4415 17.7415L75.4413 17.7413L74.0061 19.0814ZM78.9229 24.3491L80.3585 23.0094L80.3584 23.0092L78.9229 24.3491ZM80.7552 29.8703L82.707 30.0856L82.707 30.0855L80.7552 29.8703ZM79.5602 40.706L81.5119 40.9213L81.5119 40.9213L79.5602 40.706ZM77.8028 43.8775L79.0195 45.4187L79.02 45.4183L77.8028 43.8775ZM75.3762 45.793L74.1595 44.2517L73.5651 44.721L73.4397 45.4678L75.3762 45.793ZM74.3723 51.7709L76.3088 52.0963L76.3088 52.0961L74.3723 51.7709ZM66.8811 58.9531L67.1248 60.9015L67.125 60.9015L66.8811 58.9531ZM34.6428 62.9856L34.8865 64.9341L34.8866 64.934L34.6428 62.9856ZM21.9348 59.7902L20.7986 61.3917L20.7987 61.3917L21.9348 59.7902ZM10.1845 51.4537L9.04828 53.0552L9.0483 53.0553L10.1845 51.4537ZM6.1319 41.9827L8.07491 42.2665L8.07517 42.2646L6.1319 41.9827ZM6.17687 41.6728L8.12014 41.9547L8.32663 40.5316L7.0322 39.9052L6.17687 41.6728ZM5.09211 41.1479L4.23668 42.9154L4.23678 42.9154L5.09211 41.1479ZM2.01321 35.4207L0.0670684 35.1593L0.0670625 35.1593L2.01321 35.4207ZM3.40213 25.0798L5.34828 25.3412L5.34828 25.3412L3.40213 25.0798ZM5.9184 21.4526L6.84512 23.1838L6.8461 23.1832L5.9184 21.4526ZM8.00106 20.3362L9.95032 20.5732L10.4069 16.8186L7.07335 18.6055L8.00106 20.3362ZM7.75436 22.3647L9.70346 22.6031L9.70362 22.6017L7.75436 22.3647ZM8.20961 24.063L9.77818 22.8818L9.7781 22.8817L8.20961 24.063ZM8.66132 24.6628L7.09275 25.8441L9.92346 29.6029L10.6043 24.9469L8.66132 24.6628ZM9.1696 21.1868L11.1126 21.4709L11.1126 21.4708L9.1696 21.1868ZM13.0481 14.9814L11.9536 13.351L11.9536 13.3511L13.0481 14.9814ZM27.6688 6.70332L27.4524 4.75166L27.1385 4.78646L26.8513 4.91794L27.6688 6.70332ZM46.3599 12.4166L46.3773 10.453L46.3771 10.453L46.3599 12.4166ZM28.2713 13.4861L28.0416 11.5359L28.0416 11.5359L28.2713 13.4861ZM26.6226 13.9372L25.8195 12.1453L25.819 12.1455L26.6226 13.9372ZM17.1555 19.2966L16.0444 17.6775L16.0443 17.6776L17.1555 19.2966ZM14.4167 23.7508L12.4729 23.4725L12.4729 23.4727L14.4167 23.7508ZM13.0004 33.6491L11.0566 33.371L11.0566 33.371L13.0004 33.6491ZM17.7312 37.8459L17.3053 35.929L17.3052 35.929L17.7312 37.8459ZM53.3397 36.2881L53.1527 38.2428L53.1531 38.2429L53.3397 36.2881ZM58.3689 32.2772L60.3199 32.4992L60.3199 32.4991L58.3689 32.2772ZM59.637 21.1274L61.5881 21.3493L61.5881 21.3492L59.637 21.1274ZM58.1289 17.6124L59.2843 16.0246L59.2839 16.0244L58.1289 17.6124ZM49.8973 13.1196L50.6411 11.3023L50.641 11.3022L49.8973 13.1196ZM46.3287 4.95852L45.5825 6.77484C54.4255 10.4077 59.0054 12.8932 64.24 17.113L65.4724 15.5843L66.7048 14.0556C61.0651 9.50916 56.1069 6.85275 47.0749 3.1422L46.3287 4.95852ZM65.4724 15.5843L64.2398 17.1129C64.786 17.5533 65.1882 18.1392 65.4219 18.8066L67.2752 18.1577L69.1285 17.5088C68.6662 16.1885 67.8512 14.98 66.705 14.0557L65.4724 15.5843ZM67.2752 18.1577L65.3265 17.9155L64.2166 26.8482L66.1652 27.0903L68.1138 27.3325L69.2238 18.3998L67.2752 18.1577ZM66.1652 27.0903L64.2166 26.8482C63.9803 28.7501 64.7998 30.6258 66.3464 31.7472L67.4991 30.1575L68.6517 28.5678C68.2604 28.284 68.0545 27.8103 68.1138 27.3324L66.1652 27.0903ZM67.4991 30.1575L69.4456 30.4163L70.6945 21.022L68.748 20.7632L66.8015 20.5044L65.5526 29.8988L67.4991 30.1575ZM68.748 20.7632L70.6945 21.0218C70.8157 20.1092 71.9431 19.7492 72.5708 20.4214L74.0061 19.0814L75.4413 17.7413C72.5498 14.6443 67.3593 16.305 66.8015 20.5046L68.748 20.7632ZM74.0061 19.0814L72.5706 20.4212L77.4874 25.6889L78.9229 24.3491L80.3584 23.0092L75.4415 17.7415L74.0061 19.0814ZM78.9229 24.3491L77.4873 25.6888C78.4828 26.7555 78.9634 28.204 78.8034 29.6551L80.7552 29.8703L82.707 30.0855C82.9923 27.4977 82.1353 24.9134 80.3585 23.0094L78.9229 24.3491ZM80.7552 29.8703L78.8034 29.6551L77.6084 40.4908L79.5602 40.706L81.5119 40.9213L82.707 30.0856L80.7552 29.8703ZM79.5602 40.706L77.6084 40.4907C77.5281 41.2182 77.1596 41.8832 76.5857 42.3366L77.8028 43.8775L79.02 45.4183C80.4191 44.3132 81.3165 42.693 81.5119 40.9213L79.5602 40.706ZM77.8028 43.8775L76.5862 42.3362L74.1595 44.2517L75.3762 45.793L76.5929 47.3343L79.0195 45.4187L77.8028 43.8775ZM75.3762 45.793L73.4397 45.4678L72.4358 51.4457L74.3723 51.7709L76.3088 52.0961L77.3127 46.1182L75.3762 45.793ZM74.3723 51.7709L72.4359 51.4454C71.9434 54.3754 69.5858 56.6355 66.6372 57.0046L66.8811 58.9531L67.125 60.9015C71.7945 60.317 75.5287 56.7378 76.3088 52.0963L74.3723 51.7709ZM66.8811 58.9531L66.6374 57.0046L34.3991 61.0372L34.6428 62.9856L34.8866 64.934L67.1248 60.9015L66.8811 58.9531ZM34.6428 62.9856L34.3992 61.0372C30.4003 61.5372 26.3581 60.5206 23.071 58.1886L21.9348 59.7902L20.7987 61.3917C24.8864 64.2916 29.913 65.5559 34.8865 64.9341L34.6428 62.9856ZM21.9348 59.7902L23.071 58.1887L11.3207 49.8522L10.1845 51.4537L9.0483 53.0553L20.7986 61.3917L21.9348 59.7902ZM10.1845 51.4537L11.3208 49.8523C8.89968 48.1345 7.64582 45.2041 8.07491 42.2665L6.1319 41.9827L4.1889 41.6989C3.54656 46.0964 5.42348 50.4835 9.04828 53.0552L10.1845 51.4537ZM6.1319 41.9827L8.07517 42.2646L8.12014 41.9547L6.17687 41.6728L4.23359 41.3908L4.18863 41.7007L6.1319 41.9827ZM6.17687 41.6728L7.0322 39.9052L5.94744 39.3803L5.09211 41.1479L4.23678 42.9154L5.32154 43.4403L6.17687 41.6728ZM5.09211 41.1479L5.94754 39.3804C4.55593 38.7068 3.75358 37.2144 3.95937 35.682L2.01321 35.4207L0.0670625 35.1593C-0.36456 38.3734 1.31758 41.5026 4.23668 42.9154L5.09211 41.1479ZM2.01321 35.4207L3.95936 35.6821L5.34828 25.3412L3.40213 25.0798L1.45599 24.8184L0.0670684 35.1593L2.01321 35.4207ZM3.40213 25.0798L5.34828 25.3412C5.47143 24.4242 6.02872 23.6208 6.84512 23.1838L5.9184 21.4526L4.99167 19.7214C3.06362 20.7535 1.74718 22.6501 1.45598 24.8184L3.40213 25.0798ZM5.9184 21.4526L6.8461 23.1832L8.92877 22.0668L8.00106 20.3362L7.07335 18.6055L4.99069 19.7219L5.9184 21.4526ZM8.00106 20.3362L6.0518 20.0991L5.8051 22.1276L7.75436 22.3647L9.70362 22.6017L9.95032 20.5732L8.00106 20.3362ZM7.75436 22.3647L5.80527 22.1262C5.6697 23.2345 5.9693 24.3524 6.64112 25.2444L8.20961 24.063L9.7781 22.8817C9.71817 22.8021 9.69135 22.7021 9.70346 22.6031L7.75436 22.3647ZM8.20961 24.063L6.64105 25.2443L7.09275 25.8441L8.66132 24.6628L10.2299 23.4815L9.77818 22.8818L8.20961 24.063ZM8.66132 24.6628L10.6043 24.9469L11.1126 21.4709L9.1696 21.1868L7.22664 20.9027L6.71836 24.3787L8.66132 24.6628ZM9.1696 21.1868L11.1126 21.4708C11.4032 19.4822 12.5001 17.7144 14.1426 16.6117L13.0481 14.9814L11.9536 13.3511C9.36487 15.089 7.67297 17.8487 7.22662 20.9029L9.1696 21.1868ZM13.0481 14.9814L14.1425 16.6117C19.5892 12.9554 23.1443 10.9346 28.4863 8.48869L27.6688 6.70332L26.8513 4.91794C21.2921 7.46333 17.5524 9.59266 11.9536 13.351L13.0481 14.9814ZM27.6688 6.70332L27.8852 8.65498C28.0639 8.63516 41.1014 7.1913 46.4288 6.91959L46.3287 4.95852L46.2287 2.99744C40.7548 3.27662 27.5727 4.73832 27.4524 4.75166L27.6688 6.70332ZM46.3599 12.4166L46.3771 10.453C39.4818 10.3928 35.0335 10.7122 28.0416 11.5359L28.2713 13.4861L28.5011 15.4362C35.3688 14.6271 39.6482 14.3217 46.3428 14.3801L46.3599 12.4166ZM28.2713 13.4861L28.0416 11.5359C27.2846 11.6251 26.5313 11.8263 25.8195 12.1453L26.6226 13.9372L27.4258 15.729C27.7576 15.5803 28.1223 15.4808 28.5011 15.4362L28.2713 13.4861ZM26.6226 13.9372L25.819 12.1455C21.8818 13.9115 19.3103 15.4362 16.0444 17.6775L17.1555 19.2966L18.2666 20.9156C21.3732 18.7836 23.7394 17.3825 27.4262 15.7288L26.6226 13.9372ZM17.1555 19.2966L16.0443 17.6776C14.0768 19.0281 12.8059 21.1472 12.4729 23.4725L14.4167 23.7508L16.3605 24.0291C16.5431 22.7538 17.2354 21.6234 18.2667 20.9155L17.1555 19.2966ZM14.4167 23.7508L12.4729 23.4727L11.0566 33.371L13.0004 33.6491L14.9443 33.9272L16.3606 24.0289L14.4167 23.7508ZM13.0004 33.6491L11.0566 33.371C10.4686 37.4804 14.358 40.607 18.1572 39.7627L17.7312 37.8459L17.3052 35.929C15.9303 36.2345 14.7815 35.0646 14.9443 33.9272L13.0004 33.6491ZM17.7312 37.8459L18.1572 39.7627C25.9218 38.0373 37.7633 36.77 53.1527 38.2428L53.3397 36.2881L53.5268 34.3334C37.739 32.8225 25.4833 34.1117 17.3053 35.929L17.7312 37.8459ZM53.3397 36.2881L53.1531 38.2429C56.6656 38.5783 59.9119 36.085 60.3199 32.4992L58.3689 32.2772L56.4178 32.0552C56.2609 33.4341 54.9878 34.473 53.5264 34.3334L53.3397 36.2881ZM58.3689 32.2772L60.3199 32.4991L61.5881 21.3493L59.637 21.1274L57.686 20.9055L56.4178 32.0553L58.3689 32.2772ZM59.637 21.1274L61.5881 21.3492C61.8179 19.3282 60.9925 17.2677 59.2843 16.0246L58.1289 17.6124L56.9735 19.2001C57.4756 19.5655 57.765 20.2105 57.686 20.9056L59.637 21.1274ZM58.1289 17.6124L59.2839 16.0244C56.3957 13.9236 54.1288 12.7296 50.6411 11.3023L49.8973 13.1196L49.1536 14.9369C52.4099 16.2696 54.3881 17.3196 56.9739 19.2004L58.1289 17.6124ZM49.8973 13.1196L50.641 11.3022C49.2804 10.7454 47.8279 10.4658 46.3773 10.453L46.3599 12.4166L46.3426 14.3801C47.3145 14.3887 48.2721 14.5762 49.1536 14.9369L49.8973 13.1196Z" fill="#EBEBEB" mask="url(#path-3-outside-1_859_2)"></path><path d="M46.451 5.0516C55.3582 8.71089 60.1108 11.2729 65.5295 15.6412C66.3737 16.3219 66.9803 17.2172 67.3271 18.2089L66.2215 27.1072C66.0741 28.293 66.5842 29.4636 67.55 30.1638L68.7945 20.802C69.1329 18.2545 72.2818 17.248 74.0353 19.1268L78.9347 24.3757C80.3162 25.856 80.9832 27.866 80.7612 29.8786L79.5695 40.677C79.4321 41.9223 78.8017 43.0609 77.8185 43.8374L75.4004 45.7467L74.3995 51.7039C73.7654 55.4769 70.7298 58.3865 66.9336 58.8615L34.8061 62.8794C30.335 63.4386 25.8157 62.303 22.1406 59.6958L10.4307 51.3879C7.41819 49.2505 5.85848 45.6044 6.39224 41.9494L6.43721 41.6395L5.35644 41.1164C3.20851 40.0769 1.97081 37.7753 2.28825 35.4102L3.6718 25.1028C3.87838 23.5656 4.81239 22.2216 6.17989 21.4897L8.25589 20.3775L8.00885 22.3981C7.93527 22.9996 8.09743 23.6067 8.46189 24.0907L8.91253 24.6886L9.41938 21.2244C9.78659 18.7117 11.1758 16.4556 13.2841 15.0401C18.7882 11.3453 22.4232 9.27782 27.8553 6.79063C27.9837 6.77639 41.0644 5.32635 46.451 5.0516ZM46.482 12.4842C39.7103 12.4251 35.362 12.7364 28.4558 13.55C27.8895 13.6167 27.3322 13.7666 26.8119 13.9999C23.013 15.7039 20.5536 17.161 17.3782 19.3402C15.8837 20.3659 14.9054 21.9851 14.6485 23.7794L13.2366 33.6433C12.8624 36.2578 15.3728 38.4001 17.9511 37.8271C25.8953 36.0617 37.9026 34.7878 53.4387 36.2747C55.9171 36.5115 58.1682 34.7511 58.4498 32.2773L59.7138 21.1648C59.8677 19.8113 59.3127 18.4637 58.2111 17.6623C55.4833 15.6782 53.3683 14.5602 50.0076 13.1849C48.8902 12.7276 47.6893 12.4948 46.482 12.4842Z" fill="#276FFF"></path><path d="M43.3507 1.60712C44.4406 1.47833 45.5333 1.82551 46.3488 2.55977L55.972 11.2267L25.2488 8.70459L28.68 4.48075C29.3366 3.67236 30.2825 3.15126 31.3168 3.02903L43.3507 1.60712Z" fill="#276FFF"></path><path d="M40.0049 20.4798C39.3729 23.2509 39.0606 25.1089 38.8236 27.7325C38.7045 29.0505 39.7579 30.1714 41.0812 30.1714H44.6177C46.1948 30.1714 47.5049 28.9676 47.6753 27.3997C47.914 25.2022 48.1993 23.2008 48.6706 20.719C48.9182 19.4151 48.0363 18.1385 46.7126 18.0428C44.9835 17.9177 43.6496 17.9997 42.152 18.3072C41.0695 18.5294 40.2507 19.4024 40.0049 20.4798Z" fill="#276FFF"></path><path d="M23.6492 21.4832C22.9239 24.4256 22.6205 26.3558 22.4047 29.0746C22.3061 30.3177 23.3657 31.3352 24.607 31.217L28.1462 30.8799C29.3653 30.7638 30.3243 29.7932 30.4488 28.5749C30.7128 25.9899 30.9879 24.1809 31.5032 21.5081C31.7169 20.3997 30.9992 19.2984 29.8737 19.2117C28.2978 19.0904 26.9807 19.2702 25.3326 19.7251C24.4936 19.9566 23.8574 20.6382 23.6492 21.4832Z" fill="#276FFF"></path></svg>