<svg width="128" height="128" viewBox="0 0 128 128" fill="none" xmlns="http://www.w3.org/2000/svg">
<path d="M85.9687 99.8326C77.3508 73.1306 65.8067 47.0154 56.5481 20.5H73.3954C75.9976 25.9949 78.5612 31.6232 81.0684 37.3849C83.5943 43.1475 86.1203 49.2337 88.6849 55.6444C91.2485 62.0551 93.8508 68.8859 96.5293 76.1358C99.2069 83.3857 102.018 91.2846 105 99.8326H85.9687ZM42.8585 50.7904C42.8585 63.1504 60.718 93.1514 60.718 103.06C60.718 112.969 52.7228 121 42.8585 121C32.9952 121 25 112.969 25 103.06C25 93.1514 42.8585 63.1504 42.8585 50.7904Z" fill="#3993DD"/>
</svg>
