<svg width="921" height="146" viewBox="0 0 921 146" fill="none" xmlns="http://www.w3.org/2000/svg">
<path d="M920.218 2.60877V24.2941H886.142V115.601H860.707V24.2941H826.631V2.60877H920.218ZM723.751 115.601V2.60877H799.403V23.968H749.185V47.6099H793.859V68.9691H749.185V115.601H723.751ZM686.903 59.0232C686.903 68.6969 685.462 77.2024 682.583 84.5395C679.702 91.8766 675.762 98.0185 670.761 102.964C665.761 107.911 659.811 111.634 652.909 114.133C646.006 116.633 638.588 117.883 630.653 117.883C622.936 117.883 615.653 116.633 608.805 114.133C601.957 111.634 595.978 107.911 590.87 102.964C585.762 98.0185 581.739 91.8766 578.805 84.5395C575.87 77.2024 574.402 68.6969 574.402 59.0232C574.402 49.3495 575.924 40.8428 578.968 33.5056C582.012 26.1685 586.115 20.0009 591.278 15.0004C596.44 9.99983 602.419 6.24972 609.213 3.75009C616.006 1.25045 623.153 0 630.653 0C638.37 0 645.653 1.25045 652.5 3.75009C659.348 6.24972 665.327 9.99983 670.435 15.0004C675.544 20.0009 679.566 26.1685 682.501 33.5056C685.435 40.8428 686.903 49.3495 686.903 59.0232ZM600.653 59.0232C600.653 64.5668 601.332 69.5674 602.691 74.0236C604.05 78.4798 606.006 82.3121 608.561 85.5178C611.114 88.7248 614.239 91.1975 617.935 92.9371C621.631 94.6767 625.87 95.5459 630.653 95.5459C635.327 95.5459 639.539 94.6767 643.289 92.9371C647.039 91.1975 650.191 88.7248 652.746 85.5178C655.299 82.3121 657.256 78.4798 658.615 74.0236C659.974 69.5674 660.653 64.5668 660.653 59.0232C660.653 53.4796 659.974 48.4521 658.615 43.9407C657.256 39.4305 655.299 35.5713 652.746 32.3643C650.191 29.1586 647.039 26.6859 643.289 24.9463C639.539 23.2067 635.327 22.3375 630.653 22.3375C625.87 22.3375 621.631 23.2336 617.935 25.0271C614.239 26.8207 611.114 29.3216 608.561 32.5274C606.006 35.7344 604.05 39.5936 602.691 44.1037C601.332 48.6151 600.653 53.5887 600.653 59.0232ZM499.565 96.1981C503.152 96.1981 506.114 95.8989 508.452 95.3007C510.788 94.7037 512.663 93.8884 514.076 92.8549C515.49 91.8227 516.468 90.6005 517.011 89.187C517.554 87.7735 517.826 86.1982 517.826 84.4586C517.826 80.7625 516.087 77.6915 512.609 75.2458C509.131 72.8001 503.152 70.1644 494.674 67.3386C490.978 66.0343 487.283 64.5399 483.587 62.8542C479.891 61.1698 476.576 59.0502 473.641 56.4953C470.707 53.9418 468.315 50.8439 466.468 47.2016C464.62 43.5606 463.696 39.1314 463.696 33.9139C463.696 28.6964 464.674 23.995 466.631 19.8096C468.587 15.6256 471.359 12.0655 474.946 9.13068C478.533 6.19582 482.881 3.94009 487.989 2.36354C493.098 0.788266 498.859 0 505.272 0C512.881 0 519.457 0.815244 525 2.44572C530.544 4.07619 535.109 5.86971 538.696 7.82628L531.359 27.8811C528.207 26.2506 524.701 24.8102 520.843 23.5597C516.984 22.3106 512.337 21.6853 506.902 21.6853C500.816 21.6853 496.441 22.5275 493.778 24.2119C491.114 25.8976 489.783 28.4794 489.783 31.9573C489.783 34.023 490.272 35.7613 491.25 37.1748C492.228 38.5884 493.615 39.8645 495.408 41.0058C497.202 42.1472 499.266 43.1806 501.604 44.1037C503.941 45.0281 506.522 45.9794 509.348 46.9577C515.218 49.1312 520.326 51.2778 524.674 53.3974C529.022 55.517 532.636 57.991 535.517 60.8167C538.397 63.6425 540.543 66.9586 541.957 70.7626C543.37 74.5666 544.076 79.1872 544.076 84.6217C544.076 95.1659 540.38 103.345 532.989 109.16C525.598 114.975 514.456 117.883 499.565 117.883C494.565 117.883 490.055 117.584 486.033 116.987C482.011 116.389 478.452 115.655 475.354 114.785C472.256 113.916 469.592 112.992 467.365 112.014C465.136 111.035 463.261 110.111 461.739 109.242L468.913 89.0239C472.283 90.8714 476.44 92.5289 481.387 93.9963C486.332 95.4637 492.392 96.1981 499.565 96.1981Z" fill="#2B2A29"/>
<path d="M405.653 115.601C398.37 102.666 390.49 89.893 382.012 77.2845C373.533 64.6759 364.512 52.7734 354.946 41.5771V115.601H329.838V2.60872H350.544C354.131 6.19577 358.098 10.598 362.446 15.8156C366.795 21.0331 371.224 26.6037 375.735 32.5273C380.245 38.4522 384.729 44.5928 389.186 50.9517C393.642 57.3105 397.827 63.4254 401.74 69.2951V2.60872H427.012V115.601H405.653ZM262.664 2.60872H288.098V115.601H262.664V2.60872ZM34.5653 22.9897C32.7179 22.9897 31.0605 23.0436 29.5931 23.1527C28.1257 23.2618 26.7392 23.3697 25.4348 23.4788V54.1317H32.6088C42.1744 54.1317 49.0223 52.9365 53.1523 50.5447C57.2823 48.1529 59.3479 44.0767 59.3479 38.3161C59.3479 32.7725 57.2554 28.8324 53.0714 26.4945C48.8862 24.158 42.7175 22.9897 34.5653 22.9897ZM33.0979 1.30432C50.0545 1.30432 63.044 4.32009 72.0654 10.3528C81.0867 16.3856 85.598 25.7615 85.598 38.4792C85.598 46.4146 83.7776 52.8543 80.1367 57.7996C76.4945 62.7463 71.2502 66.6325 64.4023 69.4582C66.6849 72.2839 69.0767 75.5179 71.5762 79.1589C74.0758 82.8011 76.5497 86.6051 78.9954 90.5722C81.441 94.5405 83.8045 98.6706 86.0871 102.964C88.3698 107.258 90.4893 111.471 92.4459 115.601H64.0223C61.9297 111.904 59.8371 108.154 57.7175 104.35C55.571 100.546 53.3975 96.8502 51.1688 93.2631C48.9401 89.6761 46.7127 86.279 44.5379 83.072C42.3644 79.8663 40.1627 76.9584 37.9892 74.3496H25.4348V115.601H0V4.23919C5.54349 3.15178 11.277 2.39174 17.2018 1.95652C23.1253 1.5213 28.4236 1.30432 33.0979 1.30432ZM205.272 115.601C192.942 77.5695 176.426 40.3741 163.18 2.60872H187.283C191.006 10.435 194.674 18.4513 198.261 26.6576C201.875 34.8652 205.489 43.5336 209.158 52.6643C212.826 61.7949 216.549 71.5239 220.381 81.8498C224.212 92.1757 228.234 103.426 232.5 115.601H205.272ZM143.594 45.7508C143.594 63.3548 169.146 106.085 169.146 120.198C169.146 134.31 157.707 145.749 143.594 145.749C129.482 145.749 118.044 134.31 118.044 120.198C118.044 106.085 143.594 63.3548 143.594 45.7508Z" fill="#3993DD"/>
</svg>
